<mxfile host="app.diagrams.net" agent="Mozilla/5.0 (Windows NT 10.0; Win64; x64) AppleWebKit/537.36 (KHTML, like Gecko) Chrome/131.0.0.0 Safari/537.36" version="24.8.6">
  <diagram name="หน้า-1" id="Sz3Q0ISIBq6RIZUY6hsl">
    <mxGraphModel dx="875" dy="475" grid="1" gridSize="10" guides="1" tooltips="1" connect="1" arrows="1" fold="1" page="1" pageScale="1" pageWidth="827" pageHeight="1169" math="0" shadow="0">
      <root>
        <mxCell id="0" />
        <mxCell id="1" parent="0" />
        <mxCell id="mQPZ3Y7XK9Eqw1NisbOR-16" style="edgeStyle=orthogonalEdgeStyle;rounded=0;orthogonalLoop=1;jettySize=auto;html=1;entryX=0.5;entryY=0;entryDx=0;entryDy=0;" parent="1" source="mQPZ3Y7XK9Eqw1NisbOR-1" edge="1">
          <mxGeometry relative="1" as="geometry">
            <mxPoint x="440" y="100.00000000000006" as="targetPoint" />
          </mxGeometry>
        </mxCell>
        <mxCell id="mQPZ3Y7XK9Eqw1NisbOR-1" value="START" style="rounded=1;whiteSpace=wrap;html=1;arcSize=50;" parent="1" vertex="1">
          <mxGeometry x="390" y="20" width="100" height="40" as="geometry" />
        </mxCell>
        <mxCell id="bb0jn3PfGrlxbnOaY2sv-2" style="edgeStyle=orthogonalEdgeStyle;rounded=0;orthogonalLoop=1;jettySize=auto;html=1;entryX=0.5;entryY=0;entryDx=0;entryDy=0;" edge="1" parent="1" source="mQPZ3Y7XK9Eqw1NisbOR-3" target="mQPZ3Y7XK9Eqw1NisbOR-5">
          <mxGeometry relative="1" as="geometry" />
        </mxCell>
        <mxCell id="mQPZ3Y7XK9Eqw1NisbOR-3" value="PRINT FirstName: &quot;รับชื่อจากผู้ใช้&quot;" style="shape=parallelogram;perimeter=parallelogramPerimeter;whiteSpace=wrap;html=1;fixedSize=1;" parent="1" vertex="1">
          <mxGeometry x="340" y="100" width="202.5" height="30" as="geometry" />
        </mxCell>
        <mxCell id="mQPZ3Y7XK9Eqw1NisbOR-11" style="edgeStyle=orthogonalEdgeStyle;rounded=0;orthogonalLoop=1;jettySize=auto;html=1;entryX=0.5;entryY=0;entryDx=0;entryDy=0;" parent="1" source="mQPZ3Y7XK9Eqw1NisbOR-5" target="mQPZ3Y7XK9Eqw1NisbOR-7" edge="1">
          <mxGeometry relative="1" as="geometry" />
        </mxCell>
        <mxCell id="mQPZ3Y7XK9Eqw1NisbOR-5" value="PRINT LastName: &quot;รับนามสกุลจากผู้ใช้&quot;" style="shape=parallelogram;perimeter=parallelogramPerimeter;whiteSpace=wrap;html=1;fixedSize=1;" parent="1" vertex="1">
          <mxGeometry x="326.25" y="180" width="230" height="30" as="geometry" />
        </mxCell>
        <mxCell id="mQPZ3Y7XK9Eqw1NisbOR-10" style="edgeStyle=orthogonalEdgeStyle;rounded=0;orthogonalLoop=1;jettySize=auto;html=1;entryX=0.5;entryY=0;entryDx=0;entryDy=0;" parent="1" source="mQPZ3Y7XK9Eqw1NisbOR-7" target="mQPZ3Y7XK9Eqw1NisbOR-9" edge="1">
          <mxGeometry relative="1" as="geometry" />
        </mxCell>
        <mxCell id="mQPZ3Y7XK9Eqw1NisbOR-7" value="PRINT &quot;แสดงชื่อนามสกุลที่รับมา TC, RMUTL, Chiang Mai, Thailand&quot;" style="shape=parallelogram;perimeter=parallelogramPerimeter;whiteSpace=wrap;html=1;fixedSize=1;" parent="1" vertex="1">
          <mxGeometry x="237.5" y="260" width="407.5" height="40" as="geometry" />
        </mxCell>
        <mxCell id="mQPZ3Y7XK9Eqw1NisbOR-9" value="END" style="rounded=1;whiteSpace=wrap;html=1;arcSize=50;" parent="1" vertex="1">
          <mxGeometry x="391.25" y="340" width="100" height="40" as="geometry" />
        </mxCell>
      </root>
    </mxGraphModel>
  </diagram>
</mxfile>
